<svg xmlns="http://www.w3.org/2000/svg" viewBox="0 0 60 36" role="img" aria-label="United Kingdom flag">
  <rect width="60" height="36" fill="#012169"/>
  <polygon points="0,0 7,0 60,29 60,36 53,36 0,7" fill="#FFFFFF"/>
  <polygon points="60,0 53,0 0,29 0,36 7,36 60,7" fill="#FFFFFF"/>
  <polygon points="0,0 3.5,0 60,31.5 60,36 56.5,36 0,4.5" fill="#C8102E"/>
  <polygon points="60,0 56.5,0 0,31.5 0,36 3.5,36 60,4.5" fill="#C8102E"/>
  <rect x="24" width="12" height="36" fill="#FFFFFF"/>
  <rect y="12" width="60" height="12" fill="#FFFFFF"/>
  <rect x="26" width="8" height="36" fill="#C8102E"/>
  <rect y="14" width="60" height="8" fill="#C8102E"/>
</svg>
